# xmcd
#
# Track frame offsets:
#	150
#	17005
#	34932
#	49752
#	63130
#	78360
#	97207
#	113775
#	127747
#	141682
#	154175
#	171790
#	188535
#	208867
#	223232
#	236900
#	245837
#	259005
#	260715
#	263010
#	267192
#	272342
#	275350
#	277832
#	280935
#	285227
#	288712
#	291952
#
# Disc length: 3930
#
# Revision: 1
# Processed by: cddbd v1.5.1PL0 Copyright (c) Steve Scherf et al.
# Submitted via: VisiTrax 2.9.5.180 - For more info visit www.synapsa.com
# Normalized: r0:DSETVAR1
#
DISCID=b70f581c
DTITLE=Various Artist - CDX 96 November 1994
DYEAR=1994
DGENRE=
TTITLE0=Jamie O'Hara - 50,000 names
TTITLE1=Alan Jackson - Gone country
TTITLE2=Russ Taff - Love is not a thing
TTITLE3=Collin Rae - My kind of girl
TTITLE4=John and Audrey Wiggins - She's in the bedroom crying
TTITLE5=Patricia Conroy - Somebody's leaving
TTITLE6=Sammy Kershaw - Southbound
TTITLE7=Confederate Railroad - Summer in Dixie
TTITLE8=Noah Gordon - The blue pages
TTITLE9=Sawyer Brown - This time
TTITLE10=Reba McEntire - 'Till you love me
TTITLE11=Chris LeDoux - Tougher than the rest
TTITLE12=Toby Keith - Upstairs downtown
TTITLE13=Archer and Park - We got a lot in common
TTITLE14=Amie Comeaux - Who's she to you
TTITLE15=Lewis Grizzard - Alimony
TTITLE16=John Berry - Charlie Daniels - The bottom line
TTITLE17=John Berry - Liner
TTITLE18=John Berry - Liner
TTITLE19=Archer and Park - Sound bites
TTITLE20=Archer and Park - Sound bites
TTITLE21=Archer and Park - Sound bites
TTITLE22=Archer and Park - Sound bites
TTITLE23=Archer and Park - Sound bites
TTITLE24=Archer and Park - Sound bites
TTITLE25=Archer and Park - Sound bites
TTITLE26=Archer and Park - Sound bites
TTITLE27=Archer and Park - Sound bites
EXTD=
EXTT0=
EXTT1=
EXTT2=
EXTT3=
EXTT4=
EXTT5=
EXTT6=
EXTT7=
EXTT8=
EXTT9=
EXTT10=
EXTT11=
EXTT12=
EXTT13=
EXTT14=
EXTT15=
EXTT16=
EXTT17=
EXTT18=
EXTT19=
EXTT20=
EXTT21=
EXTT22=
EXTT23=
EXTT24=
EXTT25=
EXTT26=
EXTT27=
PLAYORDER=
